<svg version="1.1" viewBox="0.0 0.0 960.0 960.0" fill="none" stroke="none" stroke-linecap="square" stroke-miterlimit="10" xmlns:xlink="http://www.w3.org/1999/xlink" xmlns="http://www.w3.org/2000/svg"><clipPath id="p.0"><path d="m0 0l960.0 0l0 960.0l-960.0 0l0 -960.0z" clip-rule="nonzero"/></clipPath><g clip-path="url(#p.0)"><path fill="#000000" fill-opacity="0.0" d="m0 0l960.0 0l0 960.0l-960.0 0z" fill-rule="evenodd"/><defs><linearGradient id="p.1" gradientUnits="userSpaceOnUse" gradientTransform="matrix(30.71962922988856 0.0 0.0 30.71962922988856 0.0 0.0)" spreadMethod="pad" x1="31.250377171413618" y1="30.719629231741333" x2="31.25071358972101" y2="3.694874280411116E-9"><stop offset="0.0" stop-color="#3176ee"/><stop offset="0.5" stop-color="#3c78d8"/><stop offset="1.0" stop-color="#00ffff"/></linearGradient></defs><path fill="url(#p.1)" d="m0 471.84253l0 0c0 -260.59143 214.90332 -471.84253 480.0 -471.84253l0 0c127.303894 0 249.3938 49.711838 339.41125 138.19948c90.017456 88.48764 140.58875 208.50264 140.58875 333.64307l0 0c0 260.59143 -214.90332 471.84253 -480.0 471.84253l0 0c-265.09668 0 -480.0 -211.2511 -480.0 -471.84253z" fill-rule="evenodd"/><path fill="#ffffff" d="m48.0 471.84253l0 0c0 -234.53403 193.413 -424.66144 432.0 -424.66144l0 0c114.57355 0 224.4544 44.740986 305.47015 124.38045c81.015686 79.639465 126.52985 187.65375 126.52985 300.28098l0 0c0 234.534 -193.41296 424.66144 -432.0 424.66144l0 0c-238.587 0 -432.0 -190.12744 -432.0 -424.66144z" fill-rule="evenodd"/><defs><linearGradient id="p.2" gradientUnits="userSpaceOnUse" gradientTransform="matrix(26.370536572997654 0.0 0.0 26.370536572997654 0.0 0.0)" spreadMethod="pad" x1="24.65499147243182" y1="28.15969572836135" x2="24.655280732862106" y2="1.789159156950155"><stop offset="0.0" stop-color="#3176ee"/><stop offset="1.0" stop-color="#00ffff"/></linearGradient></defs><path fill="url(#p.2)" d="m319.29922 394.88187l165.43304 -347.70078l165.43307 347.70078l-165.43307 347.70078z" fill-rule="evenodd"/><path fill="#00ffff" d="m291.2572 363.53296l-31.4068 66.64218l229.89499 248.85391l31.406769 -66.64221z" fill-rule="evenodd"/><path fill="#00ffff" d="m673.7979 363.42206l31.406738 66.64218l-229.89496 248.85391l-31.4068 -66.64221z" fill-rule="evenodd"/><path fill="#3c78d8" d="m171.08734 352.91983l-171.08734 435.3226l124.926735 0l76.568 -203.10559l23.629837 -61.5968l51.655914 61.5968l199.2966 203.10559l6.7775574 0l200.2125 -203.10559l45.061523 -61.5968l24.728943 61.5968l83.34552 203.10559l123.8277 0l-177.86493 -435.3226l-12.272827 0l-222.92645 235.10892l-67.59235 78.75519l-67.40912 -78.75519l-227.32271 -235.10892z" fill-rule="evenodd"/></g></svg>